PathFileType	4	(X/Y/Z)	s01c0302.trc
DataRate	CameraRate	NumFrames	NumMarkers	Units	OrigDataRate	OrigDataStartFrame	OrigNumFrames
200	200	7	48	mm	200	1000	2000
Frame#	Time	racr			lacr			c7			jug			rlel			rdr			llel			ldr			s2			lic			ric			lasi			rasi			rpsi			lpsi			rgt			lgt			rth1			rth2			rth3			rth4			rlfc			rsh1			rsh2			rsh3			rsh4			rlmal			rmmal			rcal			rtoe			rmt5			lth1			lth2			lth4			lth3			llfc			lsh1			lsh2			lsh3			lsh4			llmal			lmmal			lcal			ltoe			lmt5			SBIKE			LBIKE			RBIKE			
		X1	Y1	Z1	X2	Y2	Z2	X3	Y3	Z3	X4	Y4	Z4	X5	Y5	Z5	X6	Y6	Z6	X7	Y7	Z7	X8	Y8	Z8	X9	Y9	Z9	X10	Y10	Z10	X11	Y11	Z11	X12	Y12	Z12	X13	Y13	Z13	X14	Y14	Z14	X15	Y15	Z15	X16	Y16	Z16	X17	Y17	Z17	X18	Y18	Z18	X19	Y19	Z19	X20	Y20	Z20	X21	Y21	Z21	X22	Y22	Z22	X23	Y23	Z23	X24	Y24	Z24	X25	Y25	Z25	X26	Y26	Z26	X27	Y27	Z27	X28	Y28	Z28	X29	Y29	Z29	X30	Y30	Z30	X31	Y31	Z31	X32	Y32	Z32	X33	Y33	Z33	X34	Y34	Z34	X35	Y35	Z35	X36	Y36	Z36	X37	Y37	Z37	X38	Y38	Z38	X39	Y39	Z39	X40	Y40	Z40	X41	Y41	Z41	X42	Y42	Z42	X43	Y43	Z43	X44	Y44	Z44	X45	Y45	Z45	X46	Y46	Z46	X47	Y47	Z47	X48	Y48	Z48	
1000	5.0000	713.284662	1364.339151	-136.691515	709.198469	1329.737750	-464.317923	683.804823	1430.463928	-293.542243	664.776347	1270.077450	-295.383177	666.318748	1092.643819	-18.377999	741.475261	850.974203	-83.520643	594.882918	1075.572917	-571.124558	719.692240	881.816793	-460.084446	-152.604372	374.687232	-104.234683	270.911309	1253.009791	-408.091594	347.387589	1199.497287	-94.607128	297.158785	1193.613216	-407.085510	359.647894	1152.868629	-125.185128	198.277775	1248.784955	-152.583371	166.177935	1264.573349	-251.027086	271.965587	1080.854830	-59.814406	222.940088	1127.203078	-433.358985	301.997136	967.126774	-44.331465	322.562878	887.280354	-52.783654	339.047750	799.786450	-60.032362	376.029441	899.211781	-65.607182	329.560721	681.224720	-82.870325	278.166441	577.676205	-46.699502	253.949623	496.447045	-48.762550	220.607453	414.223005	-56.046507	299.495470	481.181975	-85.430168	174.039851	306.826492	-74.740604	213.812181	308.118180	-150.878927	133.504439	332.035259	-125.260944	269.908372	98.075607	-149.182066	192.573084	157.996549	-66.161697	308.668023	1044.244515	-460.212593	392.324063	1021.063590	-480.308067	410.129836	1072.407133	-471.736131	471.620687	988.049032	-486.562905	564.335617	913.232956	-486.877621	473.615076	857.605980	-496.317577	416.658766	790.929362	-482.746446	361.548896	729.828323	-459.145653	464.383345	757.091447	-465.593785	273.260082	625.988011	-427.473436	308.345668	623.344698	-351.440017	214.893734	622.285089	-380.366065	425.670245	443.898867	-383.935137	327.297313	486.072623	-451.211584	-229.596339	890.863890	-254.256188	-22.750675	80.860172	-456.156001	-22.724765	80.411118	-55.851092	
1001	5.0050	713.936522	1363.204203	-138.601870	708.171999	1328.466589	-466.137494	683.812361	1429.508832	-295.194243	664.394038	1269.483432	-296.997666	666.345515	1091.846460	-19.367665	741.318810	850.504404	-83.725011	592.042774	1074.726924	-571.484701	718.972928	881.954437	-460.096064	-154.268889	353.900398	-103.063644	270.157919	1253.443580	-407.804638	347.206819	1199.975964	-94.552239	299.682520	1194.650517	-410.226248	360.103564	1153.341288	-124.461368	198.254207	1250.608643	-151.788174	166.260547	1266.049088	-250.440018	272.076882	1081.776320	-58.965922	221.733675	1127.772695	-431.527342	303.546649	967.347738	-44.805670	325.146413	887.787544	-53.870224	342.826240	800.476758	-62.520301	378.253395	900.617509	-66.467512	333.106542	682.108805	-84.521463	278.871126	579.596837	-48.853380	251.648220	499.389954	-51.297341	215.157675	418.441267	-58.880276	296.574938	482.489115	-87.999481	165.406055	312.743297	-77.022696	205.016041	312.812926	-153.229006	124.674692	337.373919	-127.383192	260.042732	102.495662	-149.218979	183.283336	163.734874	-66.790208	307.037135	1043.392156	-457.452115	390.535121	1019.669594	-477.332960	408.641705	1071.014066	-469.629094	469.582810	986.080336	-483.777397	564.892829	912.006742	-482.709670	474.322161	854.509172	-492.478486	417.660506	786.906729	-480.828608	363.514007	725.432294	-458.374811	465.644983	753.313559	-463.606749	275.263521	618.971411	-427.600217	309.676167	617.265102	-351.180407	216.010589	612.351162	-380.870343	435.284138	444.468828	-384.799984	334.559954	481.326016	-451.759978	-229.651064	890.787332	-254.461393	-22.772619	80.767414	-456.189295	-22.787100	80.376239	-55.884922	
1002	5.0100	714.567874	1362.117905	-140.556069	706.999861	1326.897872	-467.951850	683.688752	1428.573337	-296.915166	663.896783	1268.873393	-298.551879	666.353840	1091.081208	-20.458558	741.127817	850.102509	-83.856053	589.528802	1073.563775	-571.872007	718.355134	882.006289	-460.289365	-155.919094	333.132501	-102.119448	269.364096	1253.761575	-407.614049	346.841203	1200.490987	-94.449776	302.141378	1195.514145	-413.198558	359.507079	1153.865520	-124.226448	198.124263	1252.403606	-150.996831	166.345079	1267.555518	-249.936351	272.012302	1082.553870	-57.789431	220.949775	1128.279238	-429.933066	305.334889	967.387350	-45.218233	328.226809	888.295946	-55.287707	347.308565	801.357483	-65.180803	381.003754	902.025254	-67.790838	337.474068	682.935797	-86.467154	280.195519	581.755148	-51.311031	249.872314	502.696224	-54.055419	210.299633	423.134722	-62.005681	293.753841	484.240036	-91.372199	156.905792	319.139451	-79.751232	196.994843	317.950602	-155.430137	116.104347	343.257978	-130.096965	250.733742	107.522772	-148.894303	174.081600	170.065177	-67.582405	305.329724	1041.805245	-454.646496	388.591317	1017.108612	-474.096926	407.127338	1068.568499	-467.573833	467.402628	983.109173	-480.861283	564.062419	908.483503	-479.020599	474.199346	849.619632	-488.576695	417.912136	781.523802	-478.746049	363.992439	719.426034	-457.470745	465.914148	747.884936	-461.338114	276.613315	610.719628	-427.531759	310.624071	610.082110	-350.895647	216.880206	601.230663	-381.639879	443.857845	444.211834	-385.194073	341.554084	475.891487	-452.482400	-229.677605	890.725233	-254.717937	-22.789568	80.686893	-456.221872	-22.806638	80.379751	-55.927529	
1003	5.0150	715.103392	1360.979370	-142.509309	705.817427	1325.150163	-469.782600	683.435604	1427.703537	-298.671972	663.317092	1268.411734	-300.010486	666.157722	1090.396239	-21.528179	740.889973	849.831345	-83.962365	586.980644	1072.258759	-572.426606	717.620983	882.082466	-460.466551	-157.541662	312.345745	-101.400391	269.027136	1253.977420	-407.674959	346.211949	1201.139891	-94.261689	304.454395	1196.166634	-415.887161	358.789362	1154.452450	-123.907400	197.948944	1254.118788	-150.390495	166.491754	1268.791996	-249.590740	271.965184	1083.316703	-56.835811	220.346989	1128.639277	-428.302677	307.471085	967.226647	-45.624185	331.726417	888.914993	-56.915889	352.525456	802.376594	-67.744203	383.948119	903.645954	-69.513624	342.514710	683.836435	-88.650039	282.058015	584.246493	-53.740651	248.845876	506.469229	-56.753337	206.300052	428.389066	-64.965353	292.000549	486.522604	-94.221292	148.484451	326.211413	-82.765777	189.722451	323.513009	-157.486641	108.037123	349.691269	-133.533437	241.770204	113.058558	-148.052862	164.874520	177.145369	-68.381278	303.637050	1039.675737	-451.827718	386.571356	1013.720841	-471.020318	405.553152	1065.121470	-465.860974	465.106917	979.182735	-477.832406	562.824811	903.257190	-474.850308	473.157462	843.393057	-485.023768	417.522726	774.925208	-476.603224	363.780396	711.830652	-456.307713	465.415385	740.990348	-458.824461	277.619697	601.498134	-427.404539	311.267472	601.818972	-350.522812	217.615499	589.084142	-382.418055	451.791873	443.472841	-385.712312	348.091711	469.648932	-453.158417	-229.692330	890.697705	-255.029065	-22.800695	80.619351	-456.251897	-22.826383	80.374476	-55.974684	
1004	5.0200	715.610116	1360.071518	-144.452926	704.530006	1323.317926	-471.720687	683.047176	1426.892788	-300.431927	662.715148	1267.684086	-301.405349	665.995441	1089.881637	-22.576948	740.692208	849.669044	-84.109133	584.506082	1070.554755	-573.038484	716.953941	882.145747	-460.607480	-159.075537	291.787236	-99.954008	269.068272	1254.060137	-407.844880	345.390553	1201.856047	-94.023667	306.540698	1196.570641	-418.176721	357.957672	1154.982983	-123.525031	197.847317	1255.648678	-149.947975	166.649797	1269.958461	-249.442523	271.928069	1084.022582	-56.028968	219.948824	1128.702258	-427.122917	309.844021	967.035131	-46.054408	335.487877	889.474635	-58.628353	358.104199	803.560851	-69.998075	387.123372	905.380951	-71.505285	348.346759	684.720893	-91.119200	284.338660	587.209963	-56.022316	248.470915	510.639496	-59.284735	203.167574	434.173433	-67.576538	290.630492	489.467044	-97.193392	140.499762	333.816191	-86.020410	183.172695	329.481856	-159.402853	100.603851	356.822984	-137.277873	233.059476	119.060579	-147.188228	155.839035	184.929473	-69.253962	302.005187	1037.285416	-449.346275	384.505166	1009.983150	-468.007657	404.215608	1060.989559	-464.396334	462.739996	974.398925	-474.709493	561.242525	896.549645	-470.581568	471.302645	835.909203	-482.107270	416.538911	767.083855	-474.329331	363.291159	703.094272	-454.885045	464.470660	733.199323	-456.331162	278.809816	591.344767	-427.961528	312.052153	592.547181	-349.970880	218.489432	575.932281	-383.262722	459.591105	441.918130	-386.454156	354.360072	462.767261	-453.956867	-229.685960	890.694471	-255.333558	-22.804165	80.570816	-456.286427	-22.832132	80.387849	-56.024732	
1005	5.0250	716.028364	1359.319337	-146.279130	703.169136	1321.622121	-473.663231	682.556818	1426.137306	-302.169795	662.090561	1266.796614	-302.651516	665.689178	1089.595682	-23.485111	741.180681	850.119442	-82.825113	581.896168	1068.596707	-573.588468	716.167769	882.262504	-460.937836	-159.801552	270.773371	-99.428337	269.448072	1254.090695	-408.132588	344.384614	1202.707521	-93.804418	308.319322	1196.688823	-419.951899	357.099195	1155.441776	-123.062536	196.973809	1257.136537	-150.106153	166.830809	1271.033667	-249.606354	271.947332	1084.810154	-55.320838	219.596853	1128.321638	-426.158804	312.413226	966.845006	-46.600302	339.498617	890.116323	-60.396428	363.804455	804.754760	-72.200413	390.038033	907.217345	-73.584053	354.775237	685.746640	-93.766826	287.044496	590.667875	-58.221901	248.615074	515.272139	-61.577685	200.724341	440.543478	-69.973614	289.761056	493.044653	-99.953912	133.393594	342.072914	-89.116746	177.319454	335.838881	-161.183063	93.750529	364.349977	-140.935105	223.979395	124.956563	-146.943548	147.504803	193.101663	-70.189009	300.583374	1034.661689	-447.144849	382.651061	1005.641809	-465.231172	403.166051	1056.372183	-462.829330	460.364631	968.883253	-471.521900	558.312228	888.744248	-467.228144	468.869261	827.420327	-479.566953	415.153965	758.209527	-471.980975	362.478403	693.297603	-453.264262	463.363847	724.624750	-453.962593	279.873742	580.327710	-427.901027	312.756863	582.297344	-349.331949	219.501954	562.107784	-383.983451	466.303005	439.552032	-386.886644	360.330694	455.222330	-454.671802	-229.653878	890.701690	-255.611102	-22.806105	80.532321	-456.320203	-22.834086	80.430897	-56.074429	
1006	5.0300	716.384650	1358.705484	-147.976009	701.837612	1319.907695	-475.473037	682.001875	1425.453570	-303.834740	661.513882	1265.774103	-303.837170	665.372172	1089.470479	-24.204281	741.055605	850.034075	-82.886411	579.271171	1066.511489	-574.224441	715.570917	882.359563	-461.139612	-160.764668	250.548346	-98.046690	270.132700	1254.023077	-408.474425	343.440353	1203.661851	-93.526802	309.709304	1196.483838	-421.097389	355.961939	1155.998507	-122.659710	196.564837	1258.289531	-150.127357	166.997802	1271.895617	-250.087556	272.033039	1085.445606	-54.830536	219.417005	1127.485584	-425.256997	315.159996	966.777959	-47.200048	343.596648	890.840376	-62.123440	369.596001	806.152368	-74.463520	393.418030	909.161299	-75.527794	361.703073	686.859761	-96.493452	289.888988	594.541623	-60.237081	249.153650	520.358045	-63.700709	198.797436	447.262251	-72.290961	289.346897	496.984183	-102.389452	127.306292	350.845810	-91.733969	172.136575	342.565825	-162.831622	87.629434	372.416419	-144.180996	216.925856	132.489032	-145.607777	139.717368	201.798951	-71.202204	299.632877	1031.706539	-445.349827	381.030826	1000.769157	-462.524548	402.473222	1051.161092	-461.093519	458.040592	962.788711	-468.310355	556.211246	880.459773	-462.904940	466.140479	818.144119	-477.011672	413.456609	748.392804	-469.551370	361.577000	682.828996	-451.884888	462.037408	715.305156	-451.520481	280.787715	568.834383	-427.645024	313.559815	571.290339	-348.486342	220.752163	547.949534	-384.388154	472.340277	436.239999	-387.291904	365.965868	447.047379	-455.236054	-229.617817	890.686270	-255.805592	-22.811781	80.497055	-456.332436	-22.822410	80.428429	-56.096219	
